<svg width="24" height="25" viewBox="0 0 24 25" fill="none" xmlns="http://www.w3.org/2000/svg">
<path d="M18.1336 11.6797C18.7155 17.0552 21 18.6797 21 18.6797H3C3 18.6797 6 16.5464 6 9.07969C6 7.3823 6.63214 5.75444 7.75736 4.55421C8.88258 3.35397 10.4087 2.67969 12 2.67969C12.3373 2.67969 12.6717 2.70999 13 2.76918" stroke="black" stroke-width="1.5" stroke-linecap="round" stroke-linejoin="round"/>
<path d="M19 8.67969C20.6569 8.67969 22 7.33654 22 5.67969C22 4.02284 20.6569 2.67969 19 2.67969C17.3431 2.67969 16 4.02284 16 5.67969C16 7.33654 17.3431 8.67969 19 8.67969Z" stroke="black" stroke-width="1.5" stroke-linecap="round" stroke-linejoin="round"/>
<path d="M13.73 21.6797C13.5542 21.9828 13.3019 22.2344 12.9982 22.4092C12.6946 22.5841 12.3504 22.6762 12 22.6762C11.6496 22.6762 11.3054 22.5841 11.0018 22.4092C10.6982 22.2344 10.4458 21.9828 10.27 21.6797" stroke="black" stroke-width="1.5" stroke-linecap="round" stroke-linejoin="round"/>
</svg>
