<svg width="25" height="25" viewBox="0 0 25 25" fill="none" xmlns="http://www.w3.org/2000/svg">
<path d="M14.1306 17.6116H17.1306M17.1306 17.6116H20.1306M17.1306 17.6116V14.6116M17.1306 17.6116V20.6116" stroke="black" stroke-width="1.5" stroke-linecap="round" stroke-linejoin="round"/>
<path d="M4.13843 10.0116V5.21157C4.13843 4.8802 4.40706 4.61157 4.73843 4.61157H9.53843C9.8698 4.61157 10.1384 4.8802 10.1384 5.21157V10.0116C10.1384 10.3429 9.8698 10.6116 9.53843 10.6116H4.73843C4.40706 10.6116 4.13843 10.3429 4.13843 10.0116Z" stroke="black" stroke-width="1.5"/>
<path d="M4.13843 20.0116V15.2116C4.13843 14.8802 4.40706 14.6116 4.73843 14.6116H9.53843C9.8698 14.6116 10.1384 14.8802 10.1384 15.2116V20.0116C10.1384 20.343 9.8698 20.6116 9.53843 20.6116H4.73843C4.40706 20.6116 4.13843 20.343 4.13843 20.0116Z" stroke="black" stroke-width="1.5"/>
<path d="M14.1384 10.0116V5.21157C14.1384 4.8802 14.407 4.61157 14.7384 4.61157H19.5384C19.8698 4.61157 20.1384 4.8802 20.1384 5.21157V10.0116C20.1384 10.3429 19.8698 10.6116 19.5384 10.6116H14.7384C14.407 10.6116 14.1384 10.3429 14.1384 10.0116Z" stroke="black" stroke-width="1.5"/>
</svg>
