<svg width="25" height="25" viewBox="0 0 25 25" fill="none" xmlns="http://www.w3.org/2000/svg">
<g clip-path="url(#clip0_114_332)">
<path d="M23.0858 0.952393H2.62909C2.15921 0.952393 1.70858 1.13905 1.37633 1.4713C1.04408 1.80355 0.857422 2.25418 0.857422 2.72406V23.1807C0.857422 23.6506 1.04408 24.1012 1.37633 24.4335C1.70858 24.7657 2.15921 24.9524 2.62909 24.9524H23.0858C23.5556 24.9524 24.0063 24.7657 24.3385 24.4335C24.6708 24.1012 24.8574 23.6506 24.8574 23.1807V2.72406C24.8574 2.25418 24.6708 1.80355 24.3385 1.4713C24.0063 1.13905 23.5556 0.952393 23.0858 0.952393ZM8.01076 21.3974H4.40242V9.93573H8.01076V21.3974ZM6.20409 8.34739C5.79479 8.34509 5.39534 8.22159 5.05616 7.99248C4.71697 7.76337 4.45326 7.43892 4.2983 7.06008C4.14334 6.68124 4.10407 6.26498 4.18545 5.86385C4.26684 5.46271 4.46522 5.09467 4.75558 4.80617C5.04593 4.51768 5.41524 4.32166 5.81689 4.24285C6.21854 4.16405 6.63453 4.20599 7.01237 4.36338C7.39021 4.52077 7.71296 4.78656 7.93989 5.1272C8.16681 5.46785 8.28774 5.86808 8.28742 6.27739C8.29128 6.55143 8.23993 6.82343 8.13643 7.0772C8.03293 7.33096 7.8794 7.56129 7.68499 7.75446C7.49058 7.94763 7.25927 8.09968 7.00485 8.20154C6.75042 8.30341 6.47809 8.35301 6.20409 8.34739ZM21.3108 21.4074H17.7041V15.1457C17.7041 13.2991 16.9191 12.7291 15.9058 12.7291C14.8358 12.7291 13.7858 13.5357 13.7858 15.1924V21.4074H10.1774V9.94406H13.6474V11.5324H13.6941C14.0424 10.8274 15.2624 9.62239 17.1241 9.62239C19.1374 9.62239 21.3124 10.8174 21.3124 14.3174L21.3108 21.4074Z" fill="#0A66C2"/>
</g>
<defs>
<clipPath id="clip0_114_332">
<rect width="24" height="24" fill="white" transform="translate(0.857422 0.952393)"/>
</clipPath>
</defs>
</svg>
