<svg width="209" height="69" viewBox="0 0 209 69" fill="none" xmlns="http://www.w3.org/2000/svg">
<path d="M83.8409 10.4535C83.8409 12.2945 83.5085 13.8854 82.8438 15.2263C82.179 16.5672 81.2671 17.6013 80.108 18.3285C78.9489 19.0558 77.625 19.4195 76.1364 19.4195C74.6477 19.4195 73.3239 19.0558 72.1648 18.3285C71.0057 17.6013 70.0938 16.5672 69.429 15.2263C68.7642 13.8854 68.4318 12.2945 68.4318 10.4535C68.4318 8.61263 68.7642 7.02173 69.429 5.68082C70.0938 4.33991 71.0057 3.30582 72.1648 2.57854C73.3239 1.85127 74.6477 1.48763 76.1364 1.48763C77.625 1.48763 78.9489 1.85127 80.108 2.57854C81.2671 3.30582 82.179 4.33991 82.8438 5.68082C83.5085 7.02173 83.8409 8.61263 83.8409 10.4535ZM81.7955 10.4535C81.7955 8.94218 81.5426 7.66661 81.0369 6.62684C80.5369 5.58707 79.858 4.80013 79 4.26604C78.1477 3.73195 77.1932 3.46491 76.1364 3.46491C75.0796 3.46491 74.1222 3.73195 73.2642 4.26604C72.4119 4.80013 71.733 5.58707 71.2273 6.62684C70.7273 7.66661 70.4773 8.94218 70.4773 10.4535C70.4773 11.9649 70.7273 13.2405 71.2273 14.2802C71.733 15.32 72.4119 16.107 73.2642 16.641C74.1222 17.1751 75.0796 17.4422 76.1364 17.4422C77.1932 17.4422 78.1477 17.1751 79 16.641C79.858 16.107 80.5369 15.32 81.0369 14.2802C81.5426 13.2405 81.7955 11.9649 81.7955 10.4535ZM89.1335 11.3058V19.1808H87.1222V6.08991H89.0654V8.13536H89.2358C89.5426 7.47059 90.0085 6.9365 90.6335 6.53309C91.2585 6.124 92.0654 5.91945 93.054 5.91945C93.9404 5.91945 94.7159 6.10127 95.3807 6.46491C96.0455 6.82286 96.5625 7.36832 96.9318 8.10127C97.3012 8.82854 97.4858 9.749 97.4858 10.8626V19.1808H95.4744V10.999C95.4744 9.97059 95.2074 9.16945 94.6733 8.59559C94.1392 8.01604 93.4063 7.72627 92.4744 7.72627C91.8324 7.72627 91.2585 7.86548 90.7529 8.14388C90.2529 8.42229 89.858 8.82854 89.5682 9.36263C89.2784 9.89673 89.1335 10.5445 89.1335 11.3058ZM103.173 1.72627V19.1808H101.161V1.72627H103.173ZM106.857 19.1808V6.08991H108.868V19.1808H106.857ZM107.879 3.90809C107.487 3.90809 107.149 3.77457 106.865 3.50752C106.587 3.24048 106.447 2.91945 106.447 2.54445C106.447 2.16945 106.587 1.84843 106.865 1.58138C107.149 1.31434 107.487 1.18082 107.879 1.18082C108.271 1.18082 108.607 1.31434 108.885 1.58138C109.169 1.84843 109.311 2.16945 109.311 2.54445C109.311 2.91945 109.169 3.24048 108.885 3.50752C108.607 3.77457 108.271 3.90809 107.879 3.90809ZM114.563 11.3058V19.1808H112.552V6.08991H114.495V8.13536H114.665C114.972 7.47059 115.438 6.9365 116.063 6.53309C116.688 6.124 117.495 5.91945 118.484 5.91945C119.37 5.91945 120.146 6.10127 120.81 6.46491C121.475 6.82286 121.992 7.36832 122.362 8.10127C122.731 8.82854 122.915 9.749 122.915 10.8626V19.1808H120.904V10.999C120.904 9.97059 120.637 9.16945 120.103 8.59559C119.569 8.01604 118.836 7.72627 117.904 7.72627C117.262 7.72627 116.688 7.86548 116.183 8.14388C115.683 8.42229 115.288 8.82854 114.998 9.36263C114.708 9.89673 114.563 10.5445 114.563 11.3058ZM132.08 19.4535C130.818 19.4535 129.73 19.1751 128.815 18.6183C127.906 18.0558 127.205 17.2717 126.71 16.266C126.222 15.2547 125.977 14.0785 125.977 12.7376C125.977 11.3967 126.222 10.2149 126.71 9.19218C127.205 8.16377 127.892 7.36263 128.773 6.78877C129.659 6.20923 130.693 5.91945 131.875 5.91945C132.557 5.91945 133.23 6.03309 133.895 6.26036C134.56 6.48763 135.165 6.85695 135.71 7.36832C136.256 7.874 136.69 8.54445 137.014 9.37968C137.338 10.2149 137.5 11.2433 137.5 12.4649V13.3172H127.409V11.5785H135.455C135.455 10.8399 135.307 10.1808 135.011 9.60127C134.722 9.02173 134.307 8.56434 133.767 8.22911C133.233 7.89388 132.602 7.72627 131.875 7.72627C131.074 7.72627 130.381 7.92513 129.795 8.32286C129.216 8.71491 128.77 9.22627 128.457 9.85695C128.145 10.4876 127.989 11.1638 127.989 11.8854V13.0445C127.989 14.0331 128.159 14.8712 128.5 15.5587C128.847 16.2405 129.327 16.7604 129.94 17.1183C130.554 17.4706 131.267 17.6467 132.08 17.6467C132.608 17.6467 133.085 17.5729 133.511 17.4251C133.943 17.2717 134.315 17.0445 134.628 16.7433C134.94 16.4365 135.182 16.0558 135.352 15.6013L137.295 16.1467C137.091 16.8058 136.747 17.3854 136.264 17.8854C135.781 18.3797 135.185 18.766 134.474 19.0445C133.764 19.3172 132.966 19.4535 132.08 19.4535ZM68.125 22.7263H74.0227L78.0796 32.6126H78.2841L82.3409 22.7263H88.2387V40.1808H83.6023V30.0899H83.4659L79.5796 40.0445H76.7841L72.8977 30.0217H72.7614V40.1808H68.125V22.7263ZM96.8594 40.4195C95.4389 40.4195 94.223 40.1382 93.2117 39.5757C92.2003 39.0075 91.4247 38.2177 90.885 37.2064C90.3452 36.1893 90.0753 35.0104 90.0753 33.6695C90.0753 32.3285 90.3452 31.1524 90.885 30.141C91.4247 29.124 92.2003 28.3342 93.2117 27.7717C94.223 27.2035 95.4389 26.9195 96.8594 26.9195C98.2798 26.9195 99.4958 27.2035 100.507 27.7717C101.518 28.3342 102.294 29.124 102.834 30.141C103.374 31.1524 103.643 32.3285 103.643 33.6695C103.643 35.0104 103.374 36.1893 102.834 37.2064C102.294 38.2177 101.518 39.0075 100.507 39.5757C99.4958 40.1382 98.2798 40.4195 96.8594 40.4195ZM96.8935 36.9422C97.2912 36.9422 97.635 36.8087 97.9247 36.5416C98.2145 36.2746 98.4389 35.8939 98.598 35.3996C98.7571 34.9052 98.8367 34.3172 98.8367 33.6354C98.8367 32.9479 98.7571 32.3598 98.598 31.8712C98.4389 31.3768 98.2145 30.9962 97.9247 30.7291C97.635 30.4621 97.2912 30.3285 96.8935 30.3285C96.473 30.3285 96.1122 30.4621 95.8111 30.7291C95.51 30.9962 95.2798 31.3768 95.1208 31.8712C94.9617 32.3598 94.8821 32.9479 94.8821 33.6354C94.8821 34.3172 94.9617 34.9052 95.1208 35.3996C95.2798 35.8939 95.51 36.2746 95.8111 36.5416C96.1122 36.8087 96.473 36.9422 96.8935 36.9422ZM110.257 32.8172V40.1808H105.553V27.0899H110.018V29.5785H110.155C110.439 28.749 110.939 28.0984 111.655 27.6268C112.376 27.1552 113.217 26.9195 114.178 26.9195C115.104 26.9195 115.908 27.1325 116.59 27.5587C117.277 27.9791 117.808 28.5587 118.183 29.2973C118.564 30.0359 118.751 30.8797 118.746 31.8285V40.1808H114.041V32.8172C114.047 32.1695 113.882 31.6609 113.547 31.2916C113.217 30.9223 112.757 30.7376 112.166 30.7376C111.78 30.7376 111.442 30.8229 111.152 30.9933C110.868 31.1581 110.649 31.3967 110.496 31.7092C110.342 32.016 110.263 32.3854 110.257 32.8172ZM121.068 40.1808V27.0899H125.773V40.1808H121.068ZM123.42 25.7263C122.784 25.7263 122.239 25.516 121.784 25.0956C121.33 24.6751 121.102 24.1695 121.102 23.5785C121.102 22.9876 121.33 22.482 121.784 22.0615C122.239 21.641 122.784 21.4308 123.42 21.4308C124.063 21.4308 124.608 21.641 125.057 22.0615C125.511 22.482 125.739 22.9876 125.739 23.5785C125.739 24.1695 125.511 24.6751 125.057 25.0956C124.608 25.516 124.063 25.7263 123.42 25.7263ZM135.977 27.0899V30.499H127.352V27.0899H135.977ZM129.022 23.9535H133.727V35.9706C133.727 36.1524 133.758 36.3058 133.82 36.4308C133.883 36.5501 133.979 36.641 134.11 36.7035C134.241 36.7604 134.408 36.7888 134.613 36.7888C134.755 36.7888 134.92 36.7717 135.107 36.7376C135.3 36.7035 135.442 36.6751 135.533 36.6524L136.215 39.9592C136.005 40.0217 135.704 40.0984 135.312 40.1893C134.925 40.2802 134.465 40.3399 133.931 40.3683C132.852 40.4251 131.945 40.3143 131.212 40.0359C130.479 39.7518 129.928 39.3058 129.559 38.6979C129.19 38.0899 129.011 37.3285 129.022 36.4138V23.9535ZM144.063 40.4195C142.642 40.4195 141.426 40.1382 140.415 39.5757C139.403 39.0075 138.628 38.2177 138.088 37.2064C137.548 36.1893 137.278 35.0104 137.278 33.6695C137.278 32.3285 137.548 31.1524 138.088 30.141C138.628 29.124 139.403 28.3342 140.415 27.7717C141.426 27.2035 142.642 26.9195 144.063 26.9195C145.483 26.9195 146.699 27.2035 147.71 27.7717C148.722 28.3342 149.497 29.124 150.037 30.141C150.577 31.1524 150.847 32.3285 150.847 33.6695C150.847 35.0104 150.577 36.1893 150.037 37.2064C149.497 38.2177 148.722 39.0075 147.71 39.5757C146.699 40.1382 145.483 40.4195 144.063 40.4195ZM144.097 36.9422C144.494 36.9422 144.838 36.8087 145.128 36.5416C145.418 36.2746 145.642 35.8939 145.801 35.3996C145.96 34.9052 146.04 34.3172 146.04 33.6354C146.04 32.9479 145.96 32.3598 145.801 31.8712C145.642 31.3768 145.418 30.9962 145.128 30.7291C144.838 30.4621 144.494 30.3285 144.097 30.3285C143.676 30.3285 143.315 30.4621 143.014 30.7291C142.713 30.9962 142.483 31.3768 142.324 31.8712C142.165 32.3598 142.085 32.9479 142.085 33.6354C142.085 34.3172 142.165 34.9052 142.324 35.3996C142.483 35.8939 142.713 36.2746 143.014 36.5416C143.315 36.8087 143.676 36.9422 144.097 36.9422ZM152.756 40.1808V27.0899H157.324V29.5785H157.46C157.699 28.6581 158.077 27.9848 158.594 27.5587C159.116 27.1325 159.727 26.9195 160.426 26.9195C160.631 26.9195 160.832 26.9365 161.031 26.9706C161.236 26.999 161.432 27.0416 161.619 27.0984V31.1126C161.386 31.0331 161.099 30.9734 160.759 30.9337C160.418 30.8939 160.125 30.874 159.881 30.874C159.42 30.874 159.006 30.9791 158.636 31.1893C158.273 31.3939 157.986 31.6837 157.776 32.0587C157.565 32.428 157.46 32.8626 157.46 33.3626V40.1808H152.756ZM163.162 40.1808V27.0899H167.866V40.1808H163.162ZM165.514 25.7263C164.878 25.7263 164.332 25.516 163.878 25.0956C163.423 24.6751 163.196 24.1695 163.196 23.5785C163.196 22.9876 163.423 22.482 163.878 22.0615C164.332 21.641 164.878 21.4308 165.514 21.4308C166.156 21.4308 166.702 21.641 167.151 22.0615C167.605 22.482 167.832 22.9876 167.832 23.5785C167.832 24.1695 167.605 24.6751 167.151 25.0956C166.702 25.516 166.156 25.7263 165.514 25.7263ZM174.968 32.8172V40.1808H170.264V27.0899H174.729V29.5785H174.866C175.15 28.749 175.65 28.0984 176.366 27.6268C177.087 27.1552 177.928 26.9195 178.889 26.9195C179.815 26.9195 180.619 27.1325 181.3 27.5587C181.988 27.9791 182.519 28.5587 182.894 29.2973C183.275 30.0359 183.462 30.8797 183.457 31.8285V40.1808H178.752V32.8172C178.758 32.1695 178.593 31.6609 178.258 31.2916C177.928 30.9223 177.468 30.7376 176.877 30.7376C176.491 30.7376 176.153 30.8229 175.863 30.9933C175.579 31.1581 175.36 31.3967 175.207 31.7092C175.053 32.016 174.974 32.3854 174.968 32.8172ZM192.086 45.3626C190.773 45.3626 189.648 45.1751 188.711 44.8001C187.779 44.4308 187.055 43.9195 186.538 43.266C186.026 42.6183 185.739 41.874 185.677 41.0331H190.211C190.256 41.3115 190.37 41.5359 190.552 41.7064C190.734 41.8768 190.967 41.999 191.251 42.0729C191.54 42.1524 191.864 42.1922 192.222 42.1922C192.83 42.1922 193.333 42.0445 193.731 41.749C194.134 41.4535 194.336 40.9195 194.336 40.1467V37.9308H194.2C194.029 38.374 193.768 38.7518 193.415 39.0643C193.063 39.3712 192.64 39.607 192.146 39.7717C191.651 39.9308 191.109 40.0104 190.518 40.0104C189.586 40.0104 188.728 39.7945 187.944 39.3626C187.165 38.9308 186.54 38.2462 186.069 37.3087C185.603 36.3712 185.37 35.1467 185.37 33.6354C185.37 32.0558 185.614 30.7717 186.103 29.7831C186.597 28.7945 187.234 28.07 188.012 27.6098C188.796 27.1496 189.62 26.9195 190.484 26.9195C191.131 26.9195 191.7 27.0331 192.188 27.2604C192.677 27.482 193.086 27.7802 193.415 28.1552C193.745 28.5246 193.995 28.9308 194.165 29.374H194.268V27.0899H198.972V40.1467C198.972 41.2547 198.685 42.195 198.112 42.9677C197.543 43.7462 196.742 44.3399 195.708 44.749C194.674 45.1581 193.467 45.3626 192.086 45.3626ZM192.256 36.6695C192.688 36.6695 193.058 36.5501 193.364 36.3115C193.677 36.0672 193.915 35.7206 194.08 35.2717C194.251 34.8172 194.336 34.2717 194.336 33.6354C194.336 32.9876 194.251 32.4337 194.08 31.9734C193.915 31.5075 193.677 31.1524 193.364 30.9081C193.058 30.6581 192.688 30.5331 192.256 30.5331C191.825 30.5331 191.455 30.6581 191.148 30.9081C190.847 31.1524 190.614 31.5075 190.45 31.9734C190.29 32.4337 190.211 32.9876 190.211 33.6354C190.211 34.2831 190.29 34.8342 190.45 35.2888C190.614 35.7376 190.847 36.0814 191.148 36.32C191.455 36.553 191.825 36.6695 192.256 36.6695ZM78.6591 48.0899C78.5568 47.2263 78.1421 46.5558 77.4148 46.0785C76.6875 45.6013 75.7955 45.3626 74.7387 45.3626C73.9659 45.3626 73.2898 45.4876 72.7102 45.7376C72.1364 45.9876 71.6875 46.3314 71.3637 46.7689C71.0455 47.2064 70.8864 47.7035 70.8864 48.2604C70.8864 48.7263 70.9972 49.1268 71.2188 49.4621C71.446 49.7916 71.7358 50.0672 72.0881 50.2888C72.4404 50.5047 72.8097 50.6837 73.196 50.8257C73.5824 50.9621 73.9375 51.0729 74.2614 51.1581L76.0341 51.6354C76.4887 51.7547 76.9943 51.9195 77.5512 52.1297C78.1137 52.3399 78.6506 52.6268 79.1619 52.9905C79.679 53.3484 80.1051 53.8087 80.4404 54.3712C80.7756 54.9337 80.9432 55.624 80.9432 56.4422C80.9432 57.3854 80.696 58.2376 80.2017 58.999C79.7131 59.7604 78.9972 60.3655 78.054 60.8143C77.1165 61.2632 75.9773 61.4876 74.6364 61.4876C73.3864 61.4876 72.304 61.2859 71.3892 60.8825C70.4801 60.4791 69.7642 59.9166 69.2415 59.195C68.7244 58.4734 68.4318 57.6354 68.3637 56.6808H70.5455C70.6023 57.3399 70.8239 57.8854 71.2102 58.3172C71.6023 58.7433 72.0966 59.0615 72.6932 59.2717C73.2955 59.4763 73.9432 59.5785 74.6364 59.5785C75.4432 59.5785 76.1676 59.4479 76.8097 59.1865C77.4517 58.9195 77.9602 58.5501 78.3352 58.0785C78.7102 57.6013 78.8977 57.0445 78.8977 56.4081C78.8977 55.8285 78.7358 55.357 78.4119 54.9933C78.0881 54.6297 77.6619 54.3342 77.1335 54.107C76.6051 53.8797 76.0341 53.6808 75.4205 53.5104L73.2727 52.8967C71.9091 52.5047 70.8296 51.945 70.0341 51.2177C69.2387 50.4905 68.8409 49.5388 68.8409 48.3626C68.8409 47.3854 69.1051 46.5331 69.6335 45.8058C70.1676 45.0729 70.8835 44.5047 71.7813 44.1013C72.6847 43.6922 73.6932 43.4876 74.8068 43.4876C75.9318 43.4876 76.9318 43.6893 77.8068 44.0927C78.6818 44.4905 79.375 45.0359 79.8864 45.7291C80.4034 46.4223 80.6762 47.2092 80.7046 48.0899H78.6591ZM85.4411 66.0899C85.1002 66.0899 84.7962 66.0615 84.5291 66.0047C84.2621 65.9535 84.0774 65.9024 83.9752 65.8513L84.4865 64.0785C84.9752 64.2035 85.407 64.249 85.782 64.2149C86.157 64.1808 86.4894 64.0132 86.7791 63.7121C87.0746 63.4166 87.3445 62.9365 87.5888 62.2717L87.9638 61.249L83.1229 48.0899H85.3047L88.9183 58.5217H89.0547L92.6683 48.0899H94.8502L89.2933 63.0899C89.0433 63.766 88.7337 64.3257 88.3644 64.7689C87.995 65.2177 87.5661 65.5501 87.0774 65.766C86.5945 65.982 86.049 66.0899 85.4411 66.0899ZM106.778 51.0217L104.971 51.5331C104.857 51.232 104.69 50.9393 104.468 50.6552C104.252 50.3655 103.957 50.1268 103.582 49.9393C103.207 49.7518 102.727 49.6581 102.141 49.6581C101.34 49.6581 100.673 49.8427 100.139 50.2121C99.6101 50.5757 99.3459 51.0388 99.3459 51.6013C99.3459 52.1013 99.5277 52.4962 99.8914 52.7859C100.255 53.0757 100.823 53.3172 101.596 53.5104L103.539 53.9876C104.71 54.2717 105.582 54.7064 106.156 55.2916C106.729 55.8712 107.016 56.6183 107.016 57.5331C107.016 58.2831 106.8 58.9535 106.369 59.5445C105.942 60.1354 105.346 60.6013 104.579 60.9422C103.812 61.2831 102.92 61.4535 101.903 61.4535C100.567 61.4535 99.4624 61.1638 98.5874 60.5842C97.7124 60.0047 97.1584 59.1581 96.9254 58.0445L98.8345 57.5672C99.0164 58.2717 99.3601 58.8001 99.8658 59.1524C100.377 59.5047 101.045 59.6808 101.869 59.6808C102.806 59.6808 103.55 59.482 104.102 59.0842C104.658 58.6808 104.937 58.1979 104.937 57.6354C104.937 57.1808 104.778 56.8001 104.46 56.4933C104.141 56.1808 103.653 55.9479 102.994 55.7945L100.812 55.2831C99.6129 54.999 98.7323 54.5587 98.1698 53.9621C97.6129 53.3598 97.3345 52.607 97.3345 51.7035C97.3345 50.9649 97.5419 50.3115 97.9567 49.7433C98.3771 49.1751 98.9482 48.7291 99.6698 48.4052C100.397 48.0814 101.221 47.9195 102.141 47.9195C103.437 47.9195 104.454 48.2035 105.192 48.7717C105.937 49.3399 106.465 50.0899 106.778 51.0217ZM115.737 48.0899V49.7945H108.953V48.0899H115.737ZM110.93 44.9535H112.942V57.4308C112.942 57.999 113.024 58.4251 113.189 58.7092C113.359 58.9876 113.575 59.1751 113.837 59.2717C114.104 59.3626 114.385 59.4081 114.68 59.4081C114.902 59.4081 115.084 59.3967 115.226 59.374C115.368 59.3456 115.482 59.3229 115.567 59.3058L115.976 61.1126C115.84 61.1638 115.649 61.2149 115.405 61.266C115.161 61.3229 114.851 61.3513 114.476 61.3513C113.908 61.3513 113.351 61.2291 112.805 60.9848C112.266 60.7405 111.817 60.3683 111.459 59.8683C111.107 59.3683 110.93 58.7376 110.93 57.9763V44.9535ZM124.111 61.4535C122.849 61.4535 121.761 61.1751 120.847 60.6183C119.938 60.0558 119.236 59.2717 118.741 58.266C118.253 57.2547 118.009 56.0785 118.009 54.7376C118.009 53.3967 118.253 52.2149 118.741 51.1922C119.236 50.1638 119.923 49.3626 120.804 48.7888C121.69 48.2092 122.724 47.9195 123.906 47.9195C124.588 47.9195 125.261 48.0331 125.926 48.2604C126.591 48.4876 127.196 48.857 127.741 49.3683C128.287 49.874 128.722 50.5445 129.045 51.3797C129.369 52.2149 129.531 53.2433 129.531 54.4649V55.3172H119.44V53.5785H127.486C127.486 52.8399 127.338 52.1808 127.043 51.6013C126.753 51.0217 126.338 50.5643 125.798 50.2291C125.264 49.8939 124.634 49.7263 123.906 49.7263C123.105 49.7263 122.412 49.9251 121.827 50.3229C121.247 50.7149 120.801 51.2263 120.489 51.857C120.176 52.4876 120.02 53.1638 120.02 53.8854V55.0445C120.02 56.0331 120.19 56.8712 120.531 57.5587C120.878 58.2405 121.358 58.7604 121.972 59.1183C122.585 59.4706 123.298 59.6467 124.111 59.6467C124.639 59.6467 125.116 59.5729 125.543 59.4251C125.974 59.2717 126.347 59.0445 126.659 58.7433C126.972 58.4365 127.213 58.0558 127.384 57.6013L129.327 58.1467C129.122 58.8058 128.778 59.3854 128.295 59.8854C127.813 60.3797 127.216 60.766 126.506 61.0445C125.795 61.3172 124.997 61.4535 124.111 61.4535ZM132.591 61.1808V48.0899H134.534V50.1354H134.705C134.977 49.4365 135.418 48.8939 136.026 48.5075C136.634 48.1155 137.364 47.9195 138.216 47.9195C139.08 47.9195 139.798 48.1155 140.372 48.5075C140.952 48.8939 141.403 49.4365 141.727 50.1354H141.864C142.199 49.4592 142.702 48.9223 143.372 48.5246C144.043 48.1212 144.847 47.9195 145.784 47.9195C146.955 47.9195 147.912 48.2859 148.656 49.0189C149.401 49.7462 149.773 50.8797 149.773 52.4195V61.1808H147.761V52.4195C147.761 51.4535 147.497 50.7632 146.969 50.3484C146.44 49.9337 145.818 49.7263 145.102 49.7263C144.182 49.7263 143.469 50.0047 142.963 50.5615C142.457 51.1126 142.205 51.8115 142.205 52.6581V61.1808H140.159V52.2149C140.159 51.4706 139.918 50.8712 139.435 50.4166C138.952 49.9564 138.33 49.7263 137.568 49.7263C137.045 49.7263 136.557 49.8655 136.102 50.1439C135.653 50.4223 135.29 50.8087 135.011 51.303C134.739 51.7916 134.602 52.357 134.602 52.999V61.1808H132.591Z" fill="black"/>
<circle cx="38" cy="24.5014" r="15.6917" fill="#77C260"/>
<circle cx="38" cy="24.5014" r="6.82249" fill="black"/>
<path d="M40.3432 23.2244C39.6729 23.496 39.0055 22.8286 39.277 22.1582L45.4838 6.83639C45.7039 6.29306 46.407 6.15035 46.8215 6.56487L55.9366 15.6799C56.3511 16.0944 56.2084 16.7975 55.6651 17.0176L40.3432 23.2244Z" fill="white"/>
<path d="M38 59.7055L22.638 33.0978C15.8105 21.2721 24.3449 6.49007 38 6.49007C51.6551 6.49007 60.1895 21.2721 53.362 33.0978L38 59.7055Z" stroke="black" stroke-width="8.18699"/>
</svg>
