<svg width="25" height="25" viewBox="0 0 25 25" fill="none" xmlns="http://www.w3.org/2000/svg">
<path d="M19.6262 20.6116H5.62622C4.52165 20.6116 3.62622 19.7162 3.62622 18.6116V9.61157C3.62622 8.507 4.52165 7.61157 5.62622 7.61157H19.6262C20.7308 7.61157 21.6262 8.507 21.6262 9.61157V18.6116C21.6262 19.7162 20.7308 20.6116 19.6262 20.6116Z" stroke="black" stroke-width="1.5"/>
<path d="M17.1262 14.6116C16.8501 14.6116 16.6262 14.3877 16.6262 14.1116C16.6262 13.8355 16.8501 13.6116 17.1262 13.6116C17.4023 13.6116 17.6262 13.8355 17.6262 14.1116C17.6262 14.3877 17.4023 14.6116 17.1262 14.6116Z" fill="black" stroke="black" stroke-width="1.5" stroke-linecap="round" stroke-linejoin="round"/>
<path d="M18.6262 7.61149V6.21471C18.6262 4.90065 17.3806 3.94366 16.1109 4.28224L5.11089 7.21558C4.23539 7.44905 3.62622 8.24195 3.62622 9.14805V9.61149" stroke="black" stroke-width="1.5"/>
</svg>
